# xmcd
#
# Track frame offsets: 
#        150
#        23406
#        39712
#        55112
#        73389
#        100154
#        118870
#        147152
#        167487
#        182234
#        203007
#        215841
#        236318
#        259772
#        286431
#        301511
#
# Disc length: 4479 seconds
#
# Revision: 0
# Processed by: cddbd v1.5.2PL0 Copyright (c) Steve Scherf et al.
# Submitted via: ExactAudioCopy v0.99pb5
#
DISCID=e4117d10
DTITLE=The Best Of The Best Music Collection - Blues 1000% Vol.5
DYEAR=2002
DGENRE=Blues
TTITLE0=Good In Blues - Tony Joe White
TTITLE1=Wonderfull Tonight - Eric Clapton
TTITLE2=Blues Boys Tun - B.B.King
TTITLE3=John Mayall - Rot At Home
TTITLE4=The Robert Cray Band - Back Home
TTITLE5=Little Blue - Cold Rain
TTITLE6=Life Is Hard/Johny Winter
TTITLE7=Real Life Blues/Alvin Lee
TTITLE8=Night Life /Lutter Allison
TTITLE9=I Want You To Love Me/Robin Trower
TTITLE10=Bandit/Peter Green
TTITLE11=Hard Working Woman/Carey Bell
TTITLE12=Use Me/Junior Wells
TTITLE13=A Rainy Night In Georgia/Gil Parris
TTITLE14=Whed Do I Get To Be Called A Man/Bill Sims
TTITLE15=Nice And Warm/Jonny Lang
EXTD=
EXTT0=
EXTT1=
EXTT2=
EXTT3=
EXTT4=
EXTT5=
EXTT6=
EXTT7=
EXTT8=
EXTT9=
EXTT10=
EXTT11=
EXTT12=
EXTT13=
EXTT14=
EXTT15=
PLAYORDER=
